<svg width="261" height="302" viewBox="0 0 261 302" fill="none" xmlns="http://www.w3.org/2000/svg">
<path d="M181.658 260.738H101.138C87.3277 260.738 76.0293 249.484 76.0293 235.73V164.871C76.0293 151.116 87.3277 139.863 101.138 139.863H181.659C195.469 139.863 206.768 151.116 206.768 164.871V235.73C206.768 249.483 195.468 260.738 181.658 260.738Z" fill="white"/>
<path d="M181.658 139.862C195.468 139.862 206.767 151.115 206.767 164.87V235.729C206.767 249.483 195.468 260.737 181.658 260.737H101.138C87.3277 260.737 76.0293 249.483 76.0293 235.729V164.87C76.0293 151.115 87.3277 139.862 101.138 139.862H181.658ZM181.658 135.909H101.138C97.2269 135.909 93.4249 136.679 89.8371 138.197C86.3786 139.661 83.2705 141.751 80.599 144.413C77.9275 147.074 75.8275 150.171 74.3579 153.614C72.8339 157.188 72.0605 160.975 72.0605 164.87V235.729C72.0605 239.624 72.8339 243.411 74.3579 246.984C75.8275 250.429 77.9264 253.524 80.599 256.185C83.2705 258.846 86.3798 260.938 89.8371 262.402C93.4249 263.919 97.2269 264.69 101.138 264.69H181.659C185.57 264.69 189.372 263.919 192.96 262.402C196.418 260.938 199.526 258.847 202.198 256.185C204.869 253.524 206.97 250.428 208.439 246.984C209.963 243.411 210.736 239.624 210.736 235.729V164.87C210.736 160.975 209.963 157.188 208.439 153.614C206.97 150.17 204.871 147.074 202.198 144.413C199.526 141.752 196.417 139.661 192.96 138.197C189.372 136.679 185.569 135.909 181.658 135.909Z" fill="#317F8B"/>
<path d="M204.966 216.923C192.429 218.387 179.933 218.747 179.933 218.747C179.933 218.747 173.57 187.142 171.805 162.358C170.506 143.995 171.728 129.382 179.933 134.148C183.708 136.341 188.056 140.472 192.589 145.711C209.592 165.368 229.128 200.666 230.199 207.99C230.891 212.701 217.911 215.403 204.966 216.923Z" fill="white"/>
<path d="M178.254 220.852L177.912 219.152C177.873 218.958 173.982 199.538 171.463 179.43C169.978 167.575 169.252 157.786 169.304 150.338C169.376 140.164 170.859 134.394 173.972 132.179C175.338 131.207 177.663 130.453 180.974 132.376C191.889 138.719 205.742 158.924 213.029 170.403C217.889 178.06 222.541 186.109 226.13 193.066C228.659 197.968 231.771 204.485 232.242 207.693C232.379 208.625 232.287 210.038 231.074 211.477C229.32 213.557 225.677 215.186 219.607 216.6C215.156 217.637 209.438 218.529 202.609 219.252C191.049 220.475 180.103 220.799 179.994 220.802L178.254 220.852ZM177.091 135.293C176.693 135.293 176.484 135.442 176.37 135.523C175.024 136.48 170.989 142.437 175.555 178.9C177.623 195.415 180.624 211.469 181.622 216.63C185.142 216.489 193.495 216.084 202.196 215.162C222.398 213.022 226.911 210.023 227.915 208.834C228.193 208.505 228.17 208.353 228.16 208.287C227.574 204.295 219.953 189.001 209.542 172.598C197.485 153.603 186.316 140.235 178.895 135.925C178.054 135.436 177.481 135.293 177.091 135.293Z" fill="#317F8B"/>
<path d="M116.142 132.983L113.604 152.101L112.16 162.97L109.082 186.177C109.082 186.177 103.455 189.989 94.0958 193.009C90.5987 194.14 86.571 195.15 82.126 195.813C74.8598 196.902 66.4585 197.041 57.3565 195.186C33.9386 190.409 19.8847 173.084 13.8001 164.373C2.04011 147.56 0.230361 143.014 3.49947 135.936C5.99525 130.511 10.2713 129.521 10.2713 129.521C10.2713 129.521 10.0604 125.186 13.5053 123.645C23.8297 119.027 37.1295 131.36 37.1295 131.36C37.1295 131.36 37.625 118.097 44.7518 121.159C49.6617 123.27 50.7752 137.709 50.7752 137.709C50.7752 137.709 57.3656 146.143 67.8351 147.263C73.3063 147.848 80.8776 146.267 88.3966 143.971C88.4839 143.945 88.5724 143.92 88.6597 143.888C92.667 142.656 96.6482 141.227 100.294 139.814C101.929 139.183 103.496 138.551 104.966 137.945C111.536 135.232 116.142 132.983 116.142 132.983Z" fill="white"/>
<path opacity="0.35" d="M13.7964 164.373C19.8867 173.082 33.9383 190.41 57.3539 195.186C72.0213 198.175 84.8743 195.979 94.0965 193.006C103.456 189.989 109.081 186.175 109.081 186.175L109.494 167.862C109.494 167.862 103.117 161.74 97.1774 164.236C90.0405 167.235 92.3276 177.428 82.1348 180.263C53.7991 188.144 30.7804 173.745 23.3735 167.424C13.0979 158.655 10.4173 153.132 8.97155 150.853C5.97911 146.138 3.66817 142.432 2.36529 139.114C1.03746 144.727 3.87228 150.179 13.7964 164.373Z" fill="#317F8B"/>
<path d="M71.4847 198.664C66.5952 198.664 61.7262 198.175 56.941 197.198C46.4147 195.051 36.5938 190.217 27.7526 182.828C22.0625 178.074 16.7977 172.258 12.1055 165.548C6.37917 157.356 2.73926 151.729 1.07919 147.21C-0.511707 142.878 -0.354091 139.364 1.62121 135.076C3.5659 130.855 6.50617 128.913 8.28303 128.081C8.57332 125.91 9.70384 123.095 12.6589 121.773C21.0545 118.017 30.7427 123.83 35.5381 127.408C35.5846 127.165 35.6368 126.916 35.6923 126.665C36.4872 123.114 37.8593 120.704 39.7699 119.503C40.9435 118.766 42.9018 118.128 45.5722 119.276C48.2812 120.442 50.2576 123.874 51.6161 129.768C52.3112 132.788 52.6457 135.623 52.7715 136.879C54.2298 138.523 59.9289 144.351 68.0569 145.22C82.8943 146.803 114.91 131.294 115.232 131.137C115.914 130.804 116.726 130.872 117.343 131.314C117.96 131.756 118.283 132.501 118.184 133.251L111.129 186.444C111.052 187.024 110.731 187.544 110.245 187.872C110.009 188.033 104.35 191.831 94.9423 194.893C89.4314 196.686 83.7618 197.854 78.0921 198.366C75.8889 198.564 73.6845 198.664 71.4847 198.664ZM10.7482 131.517C10.4817 131.589 7.3328 132.528 5.36997 136.789C2.72679 142.526 3.37653 145.87 15.4903 163.198C26.8794 179.489 41.498 189.853 57.7676 193.172C72.5914 196.195 85.4672 193.652 93.6587 190.986C100.603 188.726 105.391 186.03 107.163 184.954L113.599 136.435C110.237 137.964 104.737 140.366 98.5652 142.67C84.8265 147.798 74.4125 150.03 67.6169 149.305C56.4058 148.109 49.4389 139.344 49.1475 138.972C48.8992 138.653 48.7495 138.269 48.7189 137.867C48.7166 137.833 48.4365 134.326 47.5838 130.642C46.1471 124.432 44.4281 123.258 43.936 123.047C42.7045 122.517 42.1727 122.851 41.972 122.976C40.2382 124.062 39.2993 128.578 39.186 131.436C39.1542 132.238 38.6553 132.95 37.9103 133.256C37.1642 133.562 36.3092 133.408 35.7184 132.861C35.5959 132.748 23.2962 121.517 14.3484 125.521C12.2869 126.443 12.3243 129.226 12.33 129.426C12.3912 130.44 11.7449 131.306 10.7482 131.517Z" fill="#317F8B"/>
<path d="M38.826 131.357C38.8736 131.934 38.7874 132.46 38.6718 132.915C38.6139 133.15 38.5425 133.353 38.4699 133.562C38.3962 133.757 38.3157 133.956 38.2363 134.133C37.9109 134.863 37.5594 135.467 37.2249 136.053C36.8892 136.636 36.5661 137.191 36.2656 137.746L36.0456 138.164C35.9764 138.304 35.9027 138.443 35.8358 138.584L35.6408 139.009L35.4548 139.438L35.2859 139.874L35.1294 140.317C35.0761 140.465 35.0364 140.616 34.9888 140.766C34.9389 140.916 34.9014 141.07 34.8606 141.223C34.7041 141.837 34.5692 142.469 34.491 143.121C34.4059 143.772 34.3515 144.439 34.3356 145.118C34.3186 145.459 34.3254 145.8 34.322 146.148C34.3163 146.322 34.3311 146.493 34.3322 146.668C34.3356 146.844 34.3413 147.019 34.3402 147.196V147.208C34.3402 147.345 34.229 147.456 34.0907 147.456C33.9943 147.456 33.9115 147.401 33.8707 147.321C33.5396 146.682 33.2403 146.018 33.0089 145.324C32.7651 144.633 32.5905 143.913 32.4624 143.175C32.2106 141.7 32.2163 140.139 32.493 138.615L32.6075 138.046C32.6517 137.858 32.7005 137.672 32.747 137.483C32.7969 137.297 32.8524 137.114 32.9046 136.927C32.959 136.743 33.0237 136.564 33.0838 136.382C33.3321 135.659 33.6394 134.972 33.9558 134.329C34.271 133.686 34.6066 133.08 34.8788 132.553C35.1657 132.02 35.3278 131.588 35.4231 131.354L35.6226 130.865C35.9696 130.017 36.9414 129.609 37.793 129.955C38.3951 130.201 38.7749 130.755 38.826 131.357Z" fill="#317F8B"/>
<path d="M55.0889 196.597C54.5685 196.597 54.0661 196.31 53.8189 195.814C53.4697 195.116 53.7554 194.269 54.4562 193.922C60.1746 191.088 64.0821 182.245 65.7535 168.347C67.0496 157.577 66.511 147.561 66.5053 147.461C66.4622 146.683 67.0598 146.017 67.8411 145.973C68.619 145.929 69.2914 146.525 69.3356 147.303C69.3413 147.405 69.8935 157.635 68.5725 168.646C67.7912 175.161 66.5155 180.689 64.7806 185.077C62.5354 190.756 59.4863 194.582 55.7194 196.449C55.5164 196.55 55.301 196.597 55.0889 196.597Z" fill="#317F8B"/>
<g opacity="0.35">
<g opacity="0.35">
<g opacity="0.35">
<g opacity="0.35">
<path opacity="0.35" d="M238.022 287.468V287.18C235.755 287.277 238.022 287.468 238.022 287.468Z" fill="#317F8B"/>
</g>
</g>
</g>
</g>
<path d="M209.413 252.786H73.2393C73.2393 252.786 74.0693 229.379 82.1247 195.812C85.353 182.35 89.747 167.253 95.7137 151.376C97.147 147.564 98.6744 143.707 100.294 139.813C104.821 128.949 110.102 117.824 116.26 106.698H166.393C171.483 115.897 175.974 125.091 179.935 134.147C182.498 140.003 184.839 145.797 186.974 151.488C196.293 176.297 201.765 199.196 204.968 216.922C208.917 238.789 209.413 252.786 209.413 252.786Z" fill="white"/>
<path d="M190.718 168.945C193.35 171.871 194.553 175.277 195.664 178.698C196.222 180.409 196.772 182.124 197.297 183.846C197.56 184.707 197.83 185.566 198.065 186.435C198.306 187.301 198.541 188.17 198.777 189.039L199.466 191.649C199.693 192.52 199.922 193.389 200.135 194.265L201.388 199.516C201.592 200.393 201.816 201.264 202.015 202.141L202.613 204.773L203.226 207.401C203.433 208.276 203.646 209.15 203.838 210.029L205.02 215.295C205.223 216.172 205.398 217.055 205.585 217.935L206.138 220.576L206.415 221.897L206.553 222.557L206.682 223.219L207.201 225.868C207.373 226.751 207.551 227.633 207.738 228.513C207.917 229.395 208.097 230.277 208.286 231.158C209.075 234.673 209.651 238.234 209.89 241.842C209.921 242.292 209.956 242.742 209.978 243.195L210.035 244.551C210.065 245.457 210.09 246.362 210.076 247.273C210.071 248.182 210.05 249.092 209.991 250.006C209.938 250.92 209.862 251.834 209.724 252.754C209.697 252.931 209.531 253.053 209.353 253.027C209.231 253.009 209.136 252.927 209.095 252.821L209.094 252.816C208.443 251.094 207.912 249.364 207.409 247.633C207.162 246.768 206.924 245.901 206.694 245.035L206.363 243.732C206.258 243.298 206.151 242.864 206.042 242.429C205.62 240.691 205.248 238.948 204.913 237.198C204.752 236.321 204.606 235.443 204.472 234.562C204.328 233.682 204.196 232.801 204.058 231.92C203.925 231.038 203.784 230.158 203.641 229.278C203.489 228.4 203.32 227.524 203.149 226.649L202.635 224.023L202.507 223.367L202.37 222.712L202.096 221.403L201.547 218.784C201.361 217.912 201.187 217.037 200.987 216.167L199.814 210.945C199.626 210.073 199.406 209.208 199.198 208.34L198.558 205.742L197.901 203.147C197.795 202.715 197.673 202.285 197.558 201.854L197.205 200.563L195.789 195.402C195.299 193.686 194.798 191.974 194.32 190.255C194.082 189.396 193.844 188.536 193.613 187.675L193.44 187.029L193.258 186.385L192.898 185.096C192.419 183.378 191.964 181.653 191.516 179.925L191.187 178.626C191.077 178.193 190.956 177.764 190.84 177.333C190.61 176.47 190.417 175.596 190.272 174.707C190.128 173.817 190.027 172.913 189.989 171.99C189.968 171.528 189.966 171.06 189.983 170.586C190.001 170.111 190.032 169.631 190.116 169.136L190.119 169.116C190.151 168.929 190.329 168.802 190.517 168.834C190.598 168.849 190.668 168.889 190.718 168.945Z" fill="#317F8B"/>
<path d="M72.9199 252.775C72.7101 252.31 72.5661 251.848 72.4311 251.384C72.2962 250.919 72.1953 250.459 72.1057 249.996C71.9243 249.07 71.8268 248.149 71.7723 247.231C71.7474 246.772 71.7304 246.313 71.7315 245.856C71.7326 245.398 71.7508 244.943 71.7723 244.488L71.8494 243.123C71.8732 242.667 71.9016 242.212 71.939 241.758C72.0808 239.942 72.2191 238.124 72.4323 236.317C72.5287 235.411 72.6364 234.507 72.743 233.603C72.7951 233.151 72.8654 232.702 72.9267 232.25L73.1183 230.898L73.5186 228.198C73.6592 227.299 73.8225 226.404 73.9755 225.507C74.2885 223.715 74.5833 221.92 74.9405 220.137C75.2875 218.351 75.605 216.561 75.9599 214.779C76.3205 212.998 76.672 211.215 77.019 209.43C77.1074 208.984 77.1868 208.537 77.2832 208.093L77.569 206.76L78.1393 204.095L78.7097 201.43C78.7584 201.207 78.8027 200.985 78.8537 200.763L79.0102 200.1L79.3231 198.773L80.5739 193.466C80.6748 193.024 80.7882 192.583 80.9004 192.143C81.0093 191.701 81.1204 191.261 81.2247 190.819C81.4356 189.935 81.6443 189.05 81.845 188.164C82.0502 187.278 82.2509 186.391 82.463 185.506C82.6671 184.62 82.9234 183.748 83.1796 182.875C83.4416 182.004 83.7194 181.138 84.0108 180.275C84.3033 179.413 84.614 178.556 84.9281 177.701L85.4135 176.423C85.4951 176.21 85.5858 176 85.6743 175.789C85.7638 175.579 85.85 175.368 85.943 175.158C86.3093 174.318 86.6801 173.483 87.0747 172.655C87.4647 171.825 87.8718 171.001 88.2993 170.186C88.7268 169.371 89.1702 168.561 89.6623 167.768C89.7564 167.615 89.9571 167.568 90.1102 167.663C90.2145 167.727 90.2701 167.841 90.2644 167.957V167.961C90.0603 171.688 89.3595 175.234 88.6678 178.78C88.4898 179.664 88.3084 180.547 88.1088 181.426C87.9081 182.303 87.6927 183.176 87.4636 184.045C86.9851 185.777 86.5043 187.509 86.0031 189.237C85.7525 190.101 85.5087 190.966 85.2672 191.832C85.1447 192.265 85.0302 192.699 84.9134 193.133C84.7989 193.568 84.6809 194.002 84.5834 194.441L83.3463 199.692L83.0367 201.004L82.8825 201.66C82.8315 201.879 82.7873 202.099 82.7397 202.319L82.175 204.956L81.6103 207.593L81.3279 208.912C81.2338 209.351 81.1544 209.794 81.0671 210.234C79.618 217.281 78.6439 224.412 77.6971 231.528L77.3297 234.196C77.2152 235.086 77.1006 235.976 76.9759 236.865L76.2457 242.199C76.113 243.088 76.0064 243.976 75.8862 244.865C75.8238 245.309 75.7581 245.754 75.6753 246.197C75.5937 246.639 75.5131 247.082 75.4134 247.524C75.2149 248.407 74.9689 249.288 74.6774 250.167C74.5323 250.606 74.3588 251.046 74.1808 251.485C73.9982 251.923 73.7998 252.363 73.5549 252.8L73.5526 252.805C73.4573 252.974 73.243 253.035 73.0729 252.94C73.0015 252.9 72.9505 252.841 72.9199 252.775Z" fill="#317F8B"/>
<path d="M112.459 223.254C104.693 226.386 92.6735 225.731 84.4797 224.743C79.5653 224.151 76.1147 219.633 76.8393 214.756C77.5004 210.305 81.434 207.068 85.9459 207.278C93.6101 207.636 105.107 207.803 112.388 206.195" fill="white"/>
<g opacity="0.35">
<g opacity="0.35">
<g opacity="0.35">
<g opacity="0.35">
<path opacity="0.35" d="M112.462 223.253C104.693 226.389 92.6734 225.727 84.4796 224.746C79.5652 224.153 76.1157 219.633 76.8403 214.759C76.9843 213.764 77.2984 212.83 77.7441 211.977C79.0379 214.438 81.4883 216.252 84.4796 216.613C92.6586 217.601 104.658 218.256 112.428 215.14L112.462 223.253Z" fill="#317F8B"/>
</g>
</g>
</g>
</g>
<path d="M97.019 227.614C92.5252 227.614 88.0576 227.244 84.2317 226.784C81.3016 226.43 78.7015 224.948 76.9099 222.61C75.1149 220.268 74.3654 217.372 74.7986 214.456C75.1932 211.799 76.5561 209.394 78.6358 207.685C80.7176 205.974 83.3484 205.101 86.0426 205.228C97.3331 205.754 106.53 205.386 111.94 204.191C113.027 203.952 115.725 203.943 117.319 209.044C118.937 214.227 118.757 222.933 113.234 225.161C108.679 226.996 102.828 227.614 97.019 227.614ZM85.5278 209.323C82.2008 209.323 79.3728 211.737 78.8807 215.056C78.6119 216.865 79.0769 218.663 80.1904 220.117C81.3005 221.566 82.9118 222.484 84.7284 222.703C96.4452 224.115 106.02 223.635 111.686 221.35C113.369 220.671 113.852 217.955 113.983 216.819C114.436 212.843 113.222 209.171 112.461 208.282C105.077 209.828 93.9494 209.709 85.8509 209.331C85.7421 209.325 85.6344 209.323 85.5278 209.323Z" fill="#317F8B"/>
<path d="M171.865 223.254C179.631 226.386 191.651 225.731 199.845 224.743C204.759 224.151 208.21 219.633 207.485 214.756C206.824 210.305 202.891 207.068 198.379 207.278C190.714 207.636 179.218 207.803 171.937 206.195" fill="white"/>
<g opacity="0.35">
<g opacity="0.35">
<g opacity="0.35">
<g opacity="0.35">
<path opacity="0.35" d="M199.842 224.746C191.648 225.728 179.63 226.39 171.86 223.253L171.894 215.065C179.663 218.181 191.662 217.526 199.842 216.538C202.82 216.183 205.257 214.383 206.557 211.935C207.015 212.795 207.337 213.742 207.488 214.758C208.207 219.633 204.758 224.153 199.842 224.746Z" fill="#317F8B"/>
</g>
</g>
</g>
</g>
<path d="M187.307 227.614C181.497 227.614 175.647 226.996 171.091 225.16C165.568 222.932 165.389 214.226 167.007 209.043C168.599 203.943 171.299 203.951 172.385 204.19C177.796 205.386 186.994 205.754 198.283 205.227C200.979 205.101 203.608 205.975 205.69 207.684C207.769 209.393 209.132 211.798 209.527 214.455C209.96 217.371 209.21 220.267 207.416 222.609C205.624 224.947 203.024 226.429 200.094 226.783C196.268 227.243 191.799 227.614 187.307 227.614ZM171.866 208.282C171.105 209.171 169.891 212.844 170.344 216.819C170.473 217.955 170.956 220.671 172.64 221.35C178.307 223.635 187.881 224.116 199.598 222.703C201.414 222.484 203.026 221.566 204.136 220.117C205.25 218.663 205.715 216.866 205.446 215.056C204.938 211.631 201.942 209.171 198.477 209.331C190.376 209.709 179.25 209.827 171.866 208.282Z" fill="#317F8B"/>
<path d="M174.867 200.558V227.896C174.867 232.968 170.698 237.12 165.606 237.12H115.057C109.971 237.12 105.803 232.968 105.803 227.896V200.558C105.803 195.486 109.971 191.341 115.057 191.341H165.606C168.604 191.341 171.28 192.78 172.978 194.994C174.162 196.542 174.867 198.472 174.867 200.558Z" fill="white"/>
<g opacity="0.35">
<g opacity="0.35">
<g opacity="0.35">
<g opacity="0.35">
<path opacity="0.35" d="M174.865 200.558V227.896C174.865 232.968 170.699 237.118 165.607 237.118H115.058C109.966 237.118 105.8 232.968 105.8 227.896V217.67C113.391 225.38 128.322 230.219 142.015 230.292C146.415 230.315 149.964 226.849 150.278 222.477C150.282 222.433 150.285 222.389 150.288 222.346C150.625 218.511 153.797 215.405 157.652 215.128C162.043 214.813 165.749 218.043 166.184 222.241C172.812 214.091 170.87 199.926 172.978 194.994C174.163 196.544 174.865 198.471 174.865 200.558Z" fill="#317F8B"/>
</g>
</g>
</g>
</g>
<path d="M165.608 239.173H115.057C108.816 239.173 103.738 234.116 103.738 227.899V200.558C103.738 194.342 108.816 189.284 115.057 189.284H165.608C171.849 189.284 176.926 194.342 176.926 200.558V227.899C176.926 234.116 171.849 239.173 165.608 239.173ZM115.057 193.393C111.091 193.393 107.864 196.607 107.864 200.558V227.899C107.864 231.85 111.091 235.064 115.057 235.064H165.608C169.574 235.064 172.801 231.85 172.801 227.899V200.558C172.801 196.607 169.574 193.393 165.608 193.393H115.057Z" fill="#317F8B"/>
<path d="M158.241 222.179C162.65 222.179 166.224 218.619 166.224 214.228C166.224 209.837 162.65 206.277 158.241 206.277C153.832 206.277 150.258 209.837 150.258 214.228C150.258 218.619 153.832 222.179 158.241 222.179Z" fill="#22A7F0"/>
<g opacity="0.7">
<g opacity="0.7">
<g opacity="0.7">
<g opacity="0.7">
<path opacity="0.7" d="M166.224 214.228C166.224 214.772 166.172 215.301 166.068 215.817C165.331 212.182 162.106 209.446 158.243 209.446C154.374 209.446 151.149 212.182 150.412 215.817C150.309 215.301 150.257 214.774 150.257 214.228C150.257 209.835 153.832 206.279 158.243 206.279C162.647 206.279 166.224 209.835 166.224 214.228Z" fill="white"/>
</g>
</g>
</g>
</g>
<g opacity="0.35">
<g opacity="0.35">
<g opacity="0.35">
<g opacity="0.35">
<path opacity="0.35" d="M166.221 214.227C166.221 218.617 162.648 222.176 158.24 222.176C153.833 222.176 150.26 218.617 150.26 214.227C150.26 213.212 150.451 212.243 150.807 211.35C151.957 214.316 154.853 216.416 158.241 216.416C161.63 216.416 164.525 214.316 165.676 211.35C166.029 212.243 166.221 213.211 166.221 214.227Z" fill="#317F8B"/>
</g>
</g>
</g>
</g>
<path d="M158.24 223.719C152.986 223.719 148.711 219.462 148.711 214.228C148.711 208.994 152.986 204.737 158.24 204.737C163.495 204.737 167.77 208.994 167.77 214.228C167.77 219.462 163.495 223.719 158.24 223.719ZM158.24 207.819C154.692 207.819 151.805 210.694 151.805 214.228C151.805 217.762 154.692 220.637 158.24 220.637C161.789 220.637 164.675 217.762 164.675 214.228C164.675 210.694 161.789 207.819 158.24 207.819Z" fill="#317F8B"/>
<path d="M135.62 238.659C134.766 238.659 134.074 237.969 134.074 237.119V218.393L123.965 210.813V191.339C123.965 190.487 124.658 189.798 125.512 189.798C126.365 189.798 127.058 190.488 127.058 191.339V209.275L137.167 216.855V237.119C137.167 237.969 136.474 238.659 135.62 238.659Z" fill="#317F8B"/>
<path d="M141.324 251.838C150.266 251.838 158.864 248.534 165.581 242.653C174.883 234.508 190.544 224.794 207.83 231.025C214.766 233.523 219.492 238.107 222.717 243.179C231.022 224.013 248.443 222.865 255.984 233.727C255.984 233.727 243.309 293.956 239.178 295.296C233.26 297.216 219.041 295.197 219.041 295.197C219.041 295.197 169.572 288.527 141.324 288.527C113.075 288.527 63.6065 295.197 63.6065 295.197C63.6065 295.197 49.387 297.215 43.469 295.296C39.3381 293.956 26.6631 233.727 26.6631 233.727C34.2026 222.863 51.6254 224.013 59.9303 243.179C63.154 238.106 67.8814 233.523 74.8176 231.025C92.1032 224.794 107.764 234.508 117.067 242.653C123.783 248.532 132.381 251.838 141.324 251.838Z" fill="white"/>
<g opacity="0.35">
<path d="M255.986 233.725C255.986 233.725 243.31 293.956 239.179 295.296C233.263 297.218 219.04 295.199 219.04 295.199C219.04 295.199 169.574 288.527 141.323 288.527C113.078 288.527 63.6059 295.199 63.6059 295.199C63.6059 295.199 49.3876 297.218 43.4731 295.296C39.3422 293.956 26.666 233.725 26.666 233.725C27.9088 231.937 29.4147 230.473 31.1065 229.364C35.1705 247.024 40.9353 270.081 43.4731 270.904C49.3888 272.819 63.6059 270.801 63.6059 270.801C63.6059 270.801 113.078 257.456 141.323 257.456C169.574 257.456 219.04 270.801 219.04 270.801C219.04 270.801 233.263 272.819 239.179 270.904C241.716 270.081 247.481 247.024 251.545 229.364C253.237 230.475 254.743 231.938 255.986 233.725Z" fill="#317F8B"/>
</g>
<path d="M51.0962 298.173C47.9938 298.173 44.9628 297.941 42.831 297.25C41.3773 296.778 40.1549 295.173 37.861 288.056C36.5184 283.89 34.9071 278.088 33.0736 270.812C29.7716 257.713 26.5535 243.022 25.3232 237.314C24.6791 234.326 25.6622 231.235 27.8904 229.249C32.1676 225.435 37.9007 223.967 43.618 225.221C47.2216 226.011 50.7277 227.885 53.7575 230.639C56.2669 232.922 58.4486 235.773 60.2674 239.144C63.9583 234.452 68.6052 231.079 74.1183 229.092C80.3651 226.84 86.9011 226.393 93.5459 227.763C98.9105 228.87 104.366 231.163 109.759 234.583C110.72 235.193 111.003 236.463 110.392 237.42C109.78 238.378 108.505 238.659 107.543 238.051C96.4431 231.012 85.6696 229.299 75.5221 232.957C69.7992 235.019 65.1399 238.828 61.6757 244.279C61.2664 244.923 60.5316 245.288 59.7707 245.229C59.0087 245.169 58.342 244.695 58.0381 243.995C54.5683 235.986 48.9894 230.607 42.7312 229.236C38.3248 228.27 33.9183 229.391 30.6424 232.313C29.5153 233.317 29.0232 234.904 29.3577 236.455C30.5188 241.842 33.5623 255.743 36.7328 268.443C38.4756 275.424 40.02 281.103 41.324 285.322C43.1496 291.229 44.1033 292.962 44.4423 293.445C49.1028 294.746 59.5848 293.696 63.3177 293.166C63.3222 293.165 63.3267 293.165 63.3313 293.164C63.8268 293.098 113.263 286.475 141.325 286.475C169.389 286.475 218.823 293.098 219.319 293.164C219.323 293.165 219.329 293.165 219.334 293.166C223.068 293.696 233.548 294.746 238.209 293.445C238.542 292.971 239.47 291.288 241.234 285.622C242.508 281.536 244.015 276.029 245.715 269.255C248.748 257.176 251.654 244.033 253.117 237.275C253.596 235.06 252.763 232.79 250.994 231.491C247.618 229.012 243.434 228.272 239.215 229.408C233.169 231.036 227.983 236.216 224.613 243.996C224.31 244.695 223.644 245.17 222.88 245.23C222.117 245.29 221.385 244.924 220.975 244.28C217.511 238.83 212.853 235.02 207.13 232.958C196.893 229.268 186.028 231.042 174.833 238.228C173.874 238.842 172.599 238.568 171.981 237.613C171.364 236.66 171.639 235.389 172.598 234.773C178.023 231.29 183.514 228.945 188.916 227.804C195.627 226.385 202.227 226.82 208.534 229.093C214.047 231.08 218.694 234.455 222.386 239.146C226.261 231.972 231.765 227.156 238.139 225.441C243.519 223.992 249.097 224.991 253.443 228.183C256.516 230.44 257.971 234.347 257.151 238.14C255.602 245.3 252.532 259.173 249.372 271.626C247.582 278.689 246.008 284.315 244.696 288.348C242.458 295.23 241.256 296.787 239.819 297.253C233.546 299.288 219.478 297.337 218.761 297.236C217.985 297.132 169.029 290.585 141.326 290.585C113.619 290.585 64.667 297.132 63.8914 297.236C63.4152 297.3 57.123 298.173 51.0962 298.173Z" fill="#317F8B"/>
<path d="M235.505 295.297H239.179C243.492 295.297 247.403 292.777 249.16 288.853C254.659 276.587 264.687 249.634 255.294 233.186C255.021 232.706 254.728 232.244 254.419 231.802C254.419 231.802 245.402 223.633 238.924 235.189C232.873 245.985 220.172 292.144 235.505 295.297Z" fill="#AFAFB2"/>
<g opacity="0.7">
<g opacity="0.7">
<g opacity="0.7">
<g opacity="0.7">
<path opacity="0.7" d="M235.606 242.883C235.769 242.625 235.931 242.381 236.088 242.154C244.053 230.598 255.142 238.767 255.142 238.767C255.522 239.209 255.883 239.671 256.217 240.151C257.329 241.735 258.218 243.414 258.913 245.173C258.464 240.853 257.343 236.769 255.295 233.187C255.022 232.707 254.729 232.245 254.419 231.803C254.419 231.803 245.402 223.634 238.924 235.19C237.941 236.939 236.788 239.611 235.606 242.883Z" fill="white"/>
</g>
</g>
</g>
</g>
<path d="M258.864 246.405C258.771 246.405 258.677 246.397 258.581 246.381L236.044 242.634C235.117 242.48 234.491 241.607 234.645 240.683C234.8 239.761 235.677 239.137 236.603 239.291L259.141 243.038C260.067 243.192 260.693 244.065 260.539 244.989C260.4 245.819 259.68 246.405 258.864 246.405Z" fill="#317F8B"/>
<path d="M258.72 258.533C258.644 258.533 258.568 258.529 258.491 258.517L232.126 254.987C231.195 254.863 230.542 254.01 230.667 253.083C230.791 252.156 231.647 251.505 232.58 251.629L258.945 255.16C259.875 255.284 260.529 256.137 260.404 257.064C260.289 257.915 259.559 258.533 258.72 258.533Z" fill="#317F8B"/>
<path d="M256.395 270.412C256.326 270.412 256.257 270.408 256.187 270.4L229.422 267.137C228.49 267.023 227.827 266.178 227.94 265.25C228.055 264.322 228.902 263.66 229.835 263.774L256.599 267.037C257.531 267.151 258.195 267.996 258.081 268.924C257.976 269.783 257.242 270.412 256.395 270.412Z" fill="#317F8B"/>
<path d="M252.151 283.368C252.1 283.368 252.048 283.365 251.996 283.361L228.067 281.21C227.132 281.127 226.443 280.302 226.526 279.371C226.61 278.439 227.438 277.751 228.374 277.836L252.302 279.986C253.237 280.07 253.928 280.894 253.843 281.826C253.763 282.706 253.021 283.368 252.151 283.368Z" fill="#317F8B"/>
<g opacity="0.35">
<g opacity="0.35">
<g opacity="0.35">
<g opacity="0.35">
<path opacity="0.35" d="M235.503 295.296H239.177C243.491 295.296 247.401 292.777 249.158 288.853C250.58 285.674 252.309 281.515 253.926 276.804C251.721 280.449 247.239 282.761 242.319 282.761H237.94C231.708 281.686 229.363 275.598 229.27 267.619C227.163 281.087 227.741 293.7 235.503 295.296Z" fill="#317F8B"/>
</g>
</g>
</g>
</g>
<path d="M239.179 296.991H235.505C235.389 296.991 235.275 296.979 235.162 296.956C232.192 296.345 229.948 294.427 228.491 291.254C225.056 283.775 226.725 270.746 228.731 261.132C231.183 249.384 234.968 238.772 237.44 234.363C239.712 230.309 242.575 227.974 245.947 227.426C251.12 226.586 255.385 230.386 255.564 230.548C255.658 230.633 255.742 230.729 255.815 230.831C256.154 231.315 256.477 231.826 256.775 232.349C261.068 239.867 261.979 250.15 259.483 262.911C257.453 273.286 253.595 283.12 250.714 289.543C248.688 294.068 244.162 296.991 239.179 296.991ZM235.69 293.602H239.179C242.819 293.602 246.128 291.468 247.606 288.164C250.414 281.902 254.174 272.324 256.143 262.265C258.48 250.322 257.696 240.82 253.817 234.024C253.606 233.654 253.38 233.292 253.146 232.947C252.508 232.428 249.613 230.253 246.476 230.774C244.188 231.154 242.147 232.917 240.41 236.015C238.122 240.097 234.419 250.529 232.063 261.822C229.374 274.71 229.204 284.662 231.585 289.846C232.551 291.95 233.895 293.181 235.69 293.602Z" fill="#317F8B"/>
<path d="M47.1454 295.297H43.4714C39.158 295.297 35.2471 292.777 33.4906 288.853C27.9911 276.587 17.9637 249.634 27.3561 233.186C27.6293 232.706 27.9219 232.244 28.2314 231.802C28.2314 231.802 37.2484 223.633 43.7266 235.189C49.7772 245.985 62.4772 292.144 47.1454 295.297Z" fill="#AFAFB2"/>
<g opacity="0.7">
<g opacity="0.7">
<g opacity="0.7">
<g opacity="0.7">
<path opacity="0.7" d="M47.0421 242.883C46.8799 242.625 46.7178 242.381 46.5602 242.154C38.5955 230.598 27.5068 238.767 27.5068 238.767C27.1269 239.209 26.7652 239.671 26.4318 240.151C25.3194 241.735 24.4304 243.414 23.7354 245.173C24.1844 240.853 25.3058 236.769 27.3537 233.187C27.627 232.707 27.9195 232.245 28.2291 231.803C28.2291 231.803 37.2461 223.634 43.7242 235.19C44.7062 236.939 45.8605 239.611 47.0421 242.883Z" fill="white"/>
</g>
</g>
</g>
</g>
<path d="M23.7853 246.405C22.9688 246.405 22.2488 245.817 22.1093 244.99C21.9551 244.067 22.5799 243.194 23.5075 243.039L46.0454 239.292C46.9718 239.138 47.8483 239.76 48.0025 240.684C48.1568 241.607 47.532 242.48 46.6044 242.635L24.0665 246.382C23.9724 246.398 23.8782 246.405 23.7853 246.405Z" fill="#317F8B"/>
<path d="M23.9277 258.533C23.0886 258.533 22.3583 257.915 22.2438 257.065C22.1191 256.138 22.7722 255.285 23.7031 255.161L50.0692 251.629C51.0013 251.504 51.8563 252.156 51.9822 253.083C52.1069 254.01 51.4538 254.863 50.5228 254.987L24.1567 258.519C24.0796 258.529 24.0036 258.533 23.9277 258.533Z" fill="#317F8B"/>
<path d="M26.2537 270.412C25.4067 270.412 24.673 269.783 24.5675 268.924C24.453 267.995 25.1164 267.151 26.0496 267.037L52.8137 263.774C53.7458 263.661 54.594 264.32 54.7085 265.25C54.823 266.178 54.1597 267.023 53.2264 267.137L26.4623 270.4C26.392 270.409 26.3217 270.412 26.2537 270.412Z" fill="#317F8B"/>
<path d="M30.4985 283.367C29.6277 283.367 28.8861 282.706 28.8067 281.826C28.7228 280.894 29.4122 280.071 30.3477 279.986L54.2759 277.836C55.2125 277.752 56.038 278.439 56.123 279.371C56.2069 280.302 55.5175 281.126 54.582 281.21L30.6539 283.361C30.6017 283.365 30.5496 283.367 30.4985 283.367Z" fill="#317F8B"/>
<g opacity="0.35">
<g opacity="0.35">
<g opacity="0.35">
<g opacity="0.35">
<path opacity="0.35" d="M47.1446 295.296H43.4707C39.1572 295.296 35.2463 292.777 33.4898 288.853C32.0679 285.674 30.3387 281.515 28.7217 276.804C30.9272 280.449 35.4085 282.761 40.3286 282.761H44.7078C50.9399 281.686 53.2848 275.598 53.3778 267.619C55.4846 281.087 54.9052 293.7 47.1446 295.296Z" fill="#317F8B"/>
</g>
</g>
</g>
</g>
<path d="M47.1444 296.99H43.4705C38.4892 296.99 33.9614 294.068 31.9362 289.543C29.0572 283.121 25.1973 273.287 23.1676 262.912C20.6718 250.151 21.5823 239.868 25.8754 232.349C26.1736 231.826 26.4968 231.316 26.8347 230.833C26.9073 230.729 26.9912 230.634 27.0853 230.549C27.2644 230.386 31.5291 226.587 36.7021 227.427C40.0744 227.975 42.9376 230.31 45.21 234.364C47.6819 238.773 51.467 249.385 53.9185 261.133C55.9244 270.747 57.5936 283.777 54.1589 291.255C52.7018 294.428 50.4578 296.346 47.488 296.957C47.3746 296.979 47.259 296.99 47.1444 296.99ZM29.5028 232.948C29.2681 233.292 29.0436 233.654 28.8327 234.023C24.9524 240.82 24.1688 250.32 26.5058 262.265C28.4743 272.326 32.2333 281.902 35.042 288.164C36.5218 291.469 39.8295 293.603 43.4694 293.603H46.9585C48.7535 293.182 50.0983 291.951 51.0644 289.846C53.4445 284.662 53.2756 274.71 50.587 261.822C48.2307 250.529 44.5273 240.097 42.2391 236.015C40.503 232.917 38.462 231.154 36.1737 230.774C33.0418 230.254 30.148 232.423 29.5028 232.948Z" fill="#317F8B"/>
<path d="M88.6158 293.75C88.3743 293.75 88.1293 293.694 87.9003 293.574C87.1428 293.18 86.8503 292.248 87.2471 291.494C93.7071 279.2 93.8024 265.374 87.5306 250.402C82.7999 239.109 76.0258 231.382 75.9578 231.305C75.3931 230.667 75.4543 229.693 76.095 229.13C76.7356 228.567 77.7131 228.627 78.2778 229.265C78.5669 229.591 85.4147 237.389 90.3496 249.128C93.2615 256.054 94.8853 262.909 95.1778 269.501C95.5452 277.79 93.799 285.67 89.9878 292.923C89.7112 293.45 89.1726 293.75 88.6158 293.75Z" fill="#317F8B"/>
<path d="M194.66 293.75C194.102 293.75 193.564 293.45 193.288 292.923C189.477 285.67 187.73 277.791 188.098 269.502C188.39 262.91 190.014 256.055 192.926 249.129C197.861 237.39 204.709 229.591 204.998 229.266C205.564 228.628 206.541 228.567 207.182 229.131C207.822 229.693 207.884 230.666 207.318 231.305C207.25 231.381 200.476 239.109 195.745 250.402C189.473 265.375 189.568 279.2 196.028 291.494C196.424 292.248 196.132 293.179 195.375 293.574C195.146 293.694 194.901 293.75 194.66 293.75Z" fill="#317F8B"/>
<g opacity="0.35">
<path d="M192.59 145.711C190.805 147.745 188.928 149.676 186.973 151.49C182.332 155.794 177.246 159.457 171.806 162.359C162.615 167.27 152.42 170.023 141.683 170.074C131.193 170.12 121.209 167.583 112.159 162.97C106.233 159.945 100.71 156.036 95.7125 151.377C93.227 149.055 90.8695 146.553 88.6572 143.888C92.6645 142.656 96.6457 141.227 100.291 139.814C104.819 128.951 110.1 117.825 116.258 106.699H166.39C171.48 115.898 175.972 125.092 179.933 134.148C183.709 136.341 188.056 140.472 192.59 145.711Z" fill="#317F8B"/>
</g>
<path d="M217.879 96.1065C217.005 96.2002 216.222 95.5712 216.128 94.7015L211.235 49.3516C211.141 48.482 211.772 47.7016 212.645 47.6078C221.804 46.6275 230.026 53.2277 231.011 62.3499L232.681 77.8147C233.665 86.9369 227.037 95.1262 217.879 96.1065Z" fill="white"/>
<path d="M217.706 96.5064C217.256 96.5064 216.821 96.355 216.466 96.0693C216.054 95.7384 215.796 95.2674 215.739 94.7434L210.847 49.3935C210.79 48.8694 210.942 48.3544 211.274 47.9444C211.606 47.5345 212.079 47.277 212.605 47.2205C221.966 46.2187 230.397 52.9872 231.402 62.3093L233.07 77.7741C233.558 82.2895 232.251 86.7235 229.389 90.2597C226.528 93.7958 222.455 96.0106 217.921 96.4962L217.879 96.1077L217.921 96.4962C217.85 96.503 217.777 96.5064 217.706 96.5064ZM214.441 47.9015C213.862 47.9015 213.278 47.932 212.689 47.9953C212.371 48.0292 212.085 48.185 211.884 48.4323C211.683 48.6808 211.592 48.9914 211.626 49.3088L216.519 94.6587C216.553 94.976 216.709 95.2606 216.958 95.4605C217.208 95.6604 217.52 95.7519 217.838 95.718C222.164 95.255 226.049 93.1419 228.78 89.7684C231.51 86.3949 232.758 82.1641 232.293 77.8555L230.625 62.3906C229.727 54.0839 222.649 47.9015 214.441 47.9015Z" fill="#317F8B"/>
<g opacity="0.35">
<g opacity="0.35">
<g opacity="0.35">
<g opacity="0.35">
<path opacity="0.35" d="M231.899 70.5629L232.684 77.8159C233.667 86.9346 227.04 95.1262 217.88 96.1099C217.007 96.2047 216.223 95.57 216.129 94.7015L214.824 82.6463C215.128 83.1692 215.722 83.49 216.363 83.4267L217.442 83.3081C224.679 82.5345 230.34 77.2546 231.899 70.5629Z" fill="#317F8B"/>
</g>
</g>
</g>
</g>
<path d="M217.703 98.2897C216.846 98.2897 216.02 98.0005 215.343 97.4573C214.559 96.8282 214.068 95.9315 213.96 94.9342L209.067 49.5843C208.959 48.5871 209.248 47.6068 209.88 46.8252C210.512 46.0437 211.412 45.5546 212.413 45.4474C222.752 44.3405 232.07 51.8194 233.181 62.1184L234.849 77.5833C235.388 82.5718 233.943 87.4711 230.782 91.3789C227.62 95.2855 223.121 97.7329 218.111 98.2682C217.976 98.2818 217.839 98.2897 217.703 98.2897ZM217.649 93.946H217.647C217.647 93.946 217.647 93.946 217.649 93.946ZM213.471 49.7176L218.235 93.8726C221.849 93.3395 225.08 91.5008 227.387 88.6514C229.817 85.6483 230.927 81.8829 230.513 78.0474L228.845 62.5826C228.012 54.862 221.181 49.2026 213.471 49.7176Z" fill="#317F8B"/>
<path d="M62.3563 63.6938C63.2294 63.6001 64.013 64.2292 64.1071 65.0988L69 110.449C69.0941 111.318 68.4625 112.099 67.5894 112.193C58.4306 113.173 50.2085 106.573 49.2243 97.4505L47.5563 81.9856C46.5698 72.8634 53.1976 64.6741 62.3563 63.6938Z" fill="white"/>
<path d="M65.7933 112.679C57.1913 112.68 49.772 106.2 48.8331 97.4923L47.1651 82.0274C46.1593 72.7053 52.955 64.3071 62.3144 63.3054L62.3564 63.6939L62.3144 63.3054C63.3996 63.189 64.3793 63.9751 64.4961 65.0571L69.389 110.407C69.5058 111.489 68.7166 112.464 67.6303 112.58C67.0145 112.647 66.3999 112.679 65.7933 112.679ZM62.5264 64.0745C62.4834 64.0745 62.4414 64.0767 62.3972 64.0813C53.4675 65.0367 46.9837 73.0498 47.9441 81.9438L49.6121 97.4087C50.5714 106.303 58.6155 112.761 67.5464 111.805C68.2029 111.735 68.6803 111.146 68.61 110.492L63.7171 65.1418C63.6513 64.5296 63.1297 64.0745 62.5264 64.0745Z" fill="#317F8B"/>
<g opacity="0.35">
<g opacity="0.35">
<g opacity="0.35">
<g opacity="0.35">
<path opacity="0.35" d="M67.6471 97.8673L69.0033 110.449C69.0986 111.318 68.4613 112.099 67.5893 112.193C62.7814 112.705 58.2276 111.132 54.8462 108.198C51.7925 105.548 49.6948 101.783 49.2265 97.4528L48.5234 90.9362C51.7404 96.3754 57.9622 99.7376 64.6774 99.0204L66.3386 98.842C66.9441 98.7765 67.4237 98.3868 67.6471 97.8673Z" fill="#317F8B"/>
</g>
</g>
</g>
</g>
<path d="M65.7926 114.461C56.288 114.463 48.0919 107.303 47.0544 97.682L45.3864 82.2172C44.2751 71.9182 51.784 62.639 62.1243 61.5322C64.1903 61.3109 66.0545 62.8062 66.2768 64.8651L71.1697 110.216C71.3919 112.276 69.8906 114.131 67.8223 114.352C67.1408 114.426 66.4627 114.461 65.7926 114.461ZM62.0018 65.929C54.3592 67.0584 48.8914 74.0335 49.7237 81.7541L51.3917 97.219C52.2251 104.94 59.0559 110.598 66.7655 110.084L62.0018 65.929Z" fill="#317F8B"/>
<path d="M140.126 157.625C183.224 157.625 218.163 122.826 218.163 79.8995C218.163 36.9731 183.224 2.17432 140.126 2.17432C97.0271 2.17432 62.0889 36.9731 62.0889 79.8995C62.0889 122.826 97.0271 157.625 140.126 157.625Z" fill="white"/>
<path d="M140.05 158.017C130.482 158.017 121.135 156.308 112.224 152.925C102.747 149.329 94.1623 144.001 86.7045 137.091C79.2467 130.18 73.2935 122.035 69.0084 112.881C64.5725 103.403 62.13 93.2547 61.7479 82.7163C61.3658 72.1779 63.0678 61.88 66.8063 52.1084C70.4168 42.6701 75.7666 34.1194 82.704 26.6913C89.6414 19.2633 97.8215 13.3328 107.013 9.0648C116.529 4.64659 126.719 2.21387 137.299 1.83326C147.88 1.45265 158.219 3.14788 168.03 6.87151C177.506 10.4675 186.091 15.796 193.549 22.7057C201.007 29.6165 206.96 37.7617 211.245 46.9155C215.681 56.3934 218.123 66.5422 218.505 77.0806C218.888 87.619 217.186 97.9169 213.447 107.688C209.837 117.127 204.487 125.677 197.548 133.106C190.61 140.534 182.432 146.463 173.241 150.731C163.725 155.149 153.536 157.582 142.955 157.962C141.983 157.999 141.015 158.017 140.05 158.017ZM140.162 2.56285C139.219 2.56285 138.278 2.57979 137.326 2.61367C94.5411 4.15191 60.9882 40.0724 62.5314 82.6869C63.2787 103.33 72.053 122.449 87.2374 136.519C101.719 149.938 120.38 157.234 140.056 157.235C141.011 157.235 141.965 157.218 142.925 157.183C163.651 156.439 182.846 147.7 196.972 132.576C211.099 117.452 218.467 97.7542 217.72 77.1111C216.211 35.443 181.692 2.56285 140.162 2.56285Z" fill="#317F8B"/>
<g opacity="0.35">
<g opacity="0.35">
<g opacity="0.35">
<g opacity="0.35">
<path opacity="0.35" d="M216.977 66.3717C217.6 69.8661 217.982 73.4463 218.115 77.0976C219.663 119.996 186.009 156.026 142.939 157.576C99.8692 159.118 63.6946 125.599 62.1378 82.7017C62.0924 81.4684 62.0765 80.2328 62.0913 79.0142C68.7179 116.637 102.347 144.578 141.754 143.163C183.586 141.657 216.53 107.63 216.977 66.3717Z" fill="#317F8B"/>
</g>
</g>
</g>
</g>
<path d="M140.05 159.799C130.263 159.799 120.703 158.051 111.587 154.591C101.896 150.913 93.1133 145.463 85.4865 138.396C77.8597 131.328 71.7705 122.996 67.3879 113.634C62.8499 103.939 60.3519 93.5574 59.9618 82.7796C59.5717 72.0017 61.3123 61.4678 65.137 51.4726C68.8302 41.8197 74.3014 33.0725 81.3976 25.4761C88.4937 17.8798 96.8564 11.8138 106.258 7.44981C115.991 2.92996 126.414 0.441894 137.236 0.0533812C148.058 -0.335132 158.633 1.39849 168.668 5.20796C178.36 8.88641 187.142 14.3358 194.769 21.4035C202.396 28.4713 208.485 36.8029 212.867 46.1656C217.405 55.8603 219.903 66.2418 220.293 77.0196C220.683 87.7975 218.943 98.3314 215.118 108.327C211.425 117.98 205.954 126.727 198.858 134.323C191.762 141.919 183.397 147.984 173.996 152.349C164.263 156.869 153.84 159.357 143.019 159.746C142.028 159.781 141.036 159.799 140.05 159.799ZM140.163 4.34622C139.241 4.34622 138.322 4.36317 137.393 4.39592C95.5932 5.89802 62.8136 40.9907 64.3217 82.6237C65.052 102.791 73.6245 121.468 88.4585 135.215C102.607 148.325 120.837 155.454 140.06 155.454C140.992 155.454 141.927 155.437 142.863 155.403C163.112 154.676 181.863 146.138 195.666 131.363C209.468 116.588 216.666 97.3443 215.935 77.1766C214.459 36.4674 180.735 4.34622 140.163 4.34622Z" fill="#317F8B"/>
<path d="M217.937 79.1011C218.719 94.2904 214.492 108.646 206.626 120.745C200.729 129.817 175.423 146.457 143.217 148.389C113.355 150.18 85.3574 135.701 78.5607 127.278C69.4938 116.041 63.8185 102.192 63.0372 87.0023C60.9701 46.8059 94.7872 28.373 137.565 26.191C180.34 24.009 215.87 38.9046 217.937 79.1011Z" fill="#17A2B8"/>
<path d="M138.034 150.036C123.186 150.036 110.271 146.35 101.699 143.057C90.8437 138.887 81.3017 133.06 77.3908 128.213C67.7921 116.318 62.3107 102.093 61.5385 87.0781C61.0259 77.1145 62.6758 68.0737 66.4393 60.2063C69.9828 52.8019 75.4177 46.387 82.5955 41.1375C95.7082 31.5467 114.689 25.8624 137.486 24.7002C160.283 23.5381 179.747 27.2606 193.775 35.4668C201.453 39.9584 207.518 45.7872 211.802 52.7929C216.354 60.2356 218.922 69.0619 219.433 79.0254C220.206 94.0408 216.211 108.748 207.883 121.557C204.424 126.879 195.829 133.403 185.457 138.58C176.346 143.128 161.637 148.781 143.306 149.879C141.526 149.986 139.766 150.036 138.034 150.036ZM145.535 27.4774C142.953 27.4774 140.323 27.5452 137.64 27.6819C115.429 28.8146 97.01 34.3001 84.3701 43.5443C70.2584 53.8658 63.5841 68.4622 64.5332 86.9256C65.2725 101.31 70.5271 114.94 79.7278 126.343C82.4651 129.735 90.144 135.419 102.778 140.272C112.073 143.842 126.617 147.889 143.127 146.899C160.951 145.829 175.256 140.333 184.116 135.91C195.989 129.983 202.986 123.599 205.369 119.935C213.352 107.656 217.181 93.5619 216.442 79.1779C215.493 60.7145 207.356 46.8737 192.259 38.0418C180.37 31.087 164.33 27.4774 145.535 27.4774Z" fill="#317F8B"/>
<g opacity="0.5">
<g opacity="0.5">
<g opacity="0.5">
<g opacity="0.5">
<path d="M202.401 76.1957C203.375 68.6614 199.721 61.9837 194.24 61.2808C188.759 60.5779 183.526 66.1158 182.552 73.6502C181.578 81.1845 185.232 87.8622 190.713 88.5651C196.194 89.2681 201.427 83.7301 202.401 76.1957Z" fill="white"/>
</g>
</g>
</g>
</g>
<g opacity="0.5">
<g opacity="0.5">
<g opacity="0.5">
<g opacity="0.5">
<path d="M186.89 104.201C187.813 100.838 186.212 97.4716 183.314 96.6829C180.416 95.8942 177.319 97.9813 176.396 101.345C175.474 104.708 177.075 108.074 179.972 108.863C182.87 109.651 185.967 107.564 186.89 104.201Z" fill="white"/>
</g>
</g>
</g>
</g>
<g opacity="0.35">
<path d="M200.946 42.3698C210.877 50.8854 217.105 62.9553 217.937 79.0989C218.718 94.2916 214.49 108.646 206.629 120.746C200.73 129.817 175.421 146.456 143.216 148.392C131.845 149.078 120.747 147.399 110.981 144.591C150.518 141.372 181.337 120.96 188.651 109.709C198.636 94.3526 203.999 76.1309 203.004 56.8566C202.743 51.7042 202.037 46.8806 200.946 42.3698Z" fill="#317F8B"/>
</g>
<path d="M67.1064 54.5186C66.6664 54.5186 66.2242 54.3819 65.8455 54.0985C64.9542 53.4299 64.749 52.1909 65.3556 51.2772C68.5941 45.9781 72.7296 41.1352 77.6463 36.8842C82.4337 32.746 88.0013 29.1331 94.1937 26.1458C100.257 23.2218 106.958 20.8795 114.111 19.1831C121.199 17.5026 128.766 16.4477 136.604 16.0479C144.312 15.6549 151.865 15.9203 159.053 16.8351C166.307 17.7589 173.203 19.348 179.55 21.556C186.044 23.8159 191.986 26.7343 197.211 30.2298C202.582 33.8235 207.228 38.0497 211.022 42.792C211.684 43.5228 211.752 44.642 211.132 45.4552C210.431 46.3745 209.115 46.5529 208.192 45.855L207.972 45.6923L207.806 45.4823C193.758 27.8456 167.883 18.6387 136.818 20.2233C105.581 21.8169 80.8292 33.9466 68.9094 53.5021L68.8549 53.5914L68.7835 53.6851C68.373 54.2306 67.7437 54.5186 67.1064 54.5186Z" fill="#317F8B"/>
<g opacity="0.5">
<g opacity="0.5">
<g opacity="0.5">
<g opacity="0.5">
<path d="M81.6593 110.028C81.6593 110.028 67.1212 71.0114 87.7655 54.1145C108.41 37.2175 139.283 35.7075 138.663 37.7156C138.663 37.7156 104.912 47.6995 92.9226 75.2907C83.6777 96.5674 81.6593 110.028 81.6593 110.028Z" fill="white"/>
</g>
</g>
</g>
</g>
<path d="M210.85 299.768H72.4474C67.9661 299.768 64.333 296.15 64.333 291.687C64.333 289.115 66.4262 287.03 69.0082 287.03H214.289C216.871 287.03 218.964 289.115 218.964 291.687C218.964 296.151 215.331 299.768 210.85 299.768Z" fill="#E6E9FA"/>
<g opacity="0.3">
<g opacity="0.3">
<g opacity="0.3">
<g opacity="0.3">
<path opacity="0.3" d="M218.962 291.688C218.962 292.571 218.818 293.419 218.555 294.215C217.828 292.587 216.193 291.457 214.29 291.457H69.0093C67.7201 291.457 66.5498 291.976 65.7039 292.824C65.3014 293.225 64.9714 293.692 64.7401 294.216C64.477 293.42 64.333 292.573 64.333 291.689C64.333 290.405 64.8535 289.239 65.7051 288.397C66.551 287.55 67.7212 287.03 69.0105 287.03H214.29C216.874 287.029 218.962 289.114 218.962 291.688Z" fill="white"/>
</g>
</g>
</g>
</g>
<g opacity="0.35">
<g opacity="0.35">
<g opacity="0.35">
<g opacity="0.35">
<path opacity="0.35" d="M218.962 291.688C218.962 293.917 218.055 295.941 216.584 297.399C215.119 298.863 213.087 299.767 210.85 299.767H72.4498C67.9685 299.767 64.332 296.151 64.332 291.688C64.332 290.829 64.5645 290.023 64.9761 289.33C66.203 292.222 69.0911 294.256 72.4487 294.256H210.849C213.087 294.256 215.119 293.352 216.583 291.888C217.316 291.158 217.909 290.291 218.316 289.33C218.731 290.023 218.962 290.829 218.962 291.688Z" fill="#317F8B"/>
</g>
</g>
</g>
</g>
<path d="M210.851 301.824H72.4485C66.8367 301.824 62.2715 297.277 62.2715 291.688C62.2715 287.988 65.2945 284.977 69.0093 284.977H214.29C218.005 284.977 221.028 287.988 221.028 291.688C221.028 297.276 216.463 301.824 210.851 301.824ZM69.0081 289.086C67.5681 289.086 66.3956 290.252 66.3956 291.688C66.3956 295.012 69.1102 297.715 72.4474 297.715H210.851C214.188 297.715 216.903 295.012 216.903 291.688C216.903 290.253 215.731 289.086 214.29 289.086H69.0081Z" fill="#317F8B"/>
<path d="M227.043 196.04L213.506 287.028H69.7933L69.3034 283.736L56.2497 196.04C55.8222 193.159 58.0651 190.575 60.9838 190.575H222.307C225.233 190.575 227.47 193.159 227.043 196.04Z" fill="#FF66AC"/>
<path d="M227.043 196.04L213.506 287.028H69.7933L69.3034 283.736L56.2497 196.04C55.8222 193.159 58.0651 190.575 60.9838 190.575H222.307C225.233 190.575 227.47 193.159 227.043 196.04Z" fill="#E6E9FA"/>
<g opacity="0.5">
<g opacity="0.5">
<g opacity="0.5">
<g opacity="0.5">
<path opacity="0.5" d="M61.3532 201.688C60.9257 198.807 63.1686 196.223 66.0873 196.223H227.017L227.044 196.041C227.471 193.16 225.234 190.576 222.31 190.576H60.9858C58.067 190.576 55.8241 193.16 56.2516 196.041L69.3043 283.737L69.7941 287.029H74.0565L61.3532 201.688Z" fill="white"/>
</g>
</g>
</g>
</g>
<g opacity="0.35">
<g opacity="0.35">
<g opacity="0.35">
<g opacity="0.35">
<path opacity="0.35" d="M217.774 190.575H206.446C210.741 206.249 208.371 241.642 180.66 260.139C145.874 283.359 83.1811 283.212 69.8711 283.736L70.361 287.028H208.971L222.508 196.04C222.935 193.159 220.698 190.575 217.774 190.575Z" fill="#317F8B"/>
</g>
</g>
</g>
</g>
<path d="M215.284 289.086H68.014L54.213 196.341C53.9205 194.377 54.4999 192.389 55.8016 190.886C57.1034 189.382 58.9936 188.521 60.986 188.521H222.312C224.305 188.521 226.195 189.382 227.496 190.886C228.798 192.389 229.378 194.377 229.085 196.341L215.284 289.086ZM71.5734 284.976H211.725L225.004 195.737C225.122 194.946 224.897 194.176 224.372 193.569C223.847 192.963 223.116 192.629 222.312 192.629H60.986C60.182 192.629 59.4506 192.964 58.9256 193.569C58.4006 194.176 58.1761 194.946 58.294 195.737L71.5734 284.976Z" fill="#317F8B"/>
<g opacity="0.3">
<g opacity="0.3">
<g opacity="0.3">
<g opacity="0.3">
<path opacity="0.3" d="M81.2334 265.77C75.7815 253.801 71.8116 233.369 72.7063 221.345C73.6009 209.32 80.6029 212.999 82.7733 228.402C88.5484 269.395 83.6668 271.115 81.2334 265.77Z" fill="white"/>
</g>
</g>
</g>
</g>
<path d="M160.425 228.479C160.601 226.943 160.805 225.39 160.502 223.828C160.367 223.658 160.243 223.485 160.108 223.315C159.662 223.155 159.227 222.946 158.762 222.829C155.492 221.988 152.177 221.655 148.809 221.944C144.417 222.321 140.386 223.671 136.92 226.451C135.664 227.454 134.52 228.587 133.349 229.686C133.035 229.984 132.793 230.108 132.352 229.907C131.315 229.438 130.197 229.228 129.061 229.171C126.017 229.033 123.3 230.014 120.766 231.598C118.019 233.322 115.806 235.624 113.744 238.09C112.867 239.135 113.208 240.299 114.514 240.738C115.339 241.006 116.163 241.269 116.987 241.538C118.963 242.175 120.933 242.806 122.903 243.442C122.899 243.503 122.904 243.535 122.895 243.565C122.879 243.604 122.862 243.648 122.835 243.685C122.013 244.738 122.213 245.711 123.079 246.626C123.172 246.728 123.252 246.848 123.334 246.958C123.788 247.552 124.251 248.153 124.732 248.772C124.076 249.277 123.43 249.706 122.86 250.224C122.572 250.485 122.318 250.865 122.209 251.241C122.024 251.847 122.34 252.467 122.882 252.786C123.456 253.13 124.048 253.116 124.584 252.732C125.263 252.25 125.911 251.729 126.602 251.203C127.254 252.06 127.872 252.869 128.492 253.669C129.203 254.58 129.693 254.736 130.795 254.432C130.996 254.37 131.194 254.327 131.431 254.27C131.447 254.505 131.465 254.693 131.476 254.869C131.616 257.707 131.745 260.548 131.902 263.377C131.973 264.719 133.037 265.353 134.254 264.778C135.352 264.262 136.45 263.715 137.527 263.133C140.01 261.788 142.268 260.142 144.07 257.952C146.326 255.196 147.574 252.118 146.99 248.482C146.965 248.338 147.085 248.093 147.21 248.02C148.317 247.309 149.453 246.644 150.561 245.928C153.064 244.303 155.077 242.191 156.651 239.668C158.79 236.238 159.97 232.475 160.425 228.479ZM124.533 240.755C122.252 240.016 119.888 239.248 117.459 238.46C119.968 235.804 122.624 233.484 126.201 232.505C127.746 232.082 129.532 232.118 130.587 232.545C128.584 235.266 126.577 237.988 124.533 240.755ZM143.713 252.43C143.133 254.272 142.027 255.772 140.664 257.109C138.97 258.752 136.998 259.979 134.866 261.097C134.738 258.488 134.606 255.936 134.477 253.436C137.701 252.187 140.853 250.969 144.021 249.742C144.144 250.612 143.994 251.533 143.713 252.43ZM155.617 234.963C154.579 237.401 153.219 239.621 151.277 241.46C149.779 242.871 148.081 244.002 146.291 245.009C141.441 247.736 136.241 249.617 130.926 251.207C130.666 251.281 130.507 251.268 130.336 251.031C129.965 250.505 129.549 249.999 129.157 249.481C129.131 249.452 129.122 249.403 129.084 249.311C129.22 249.202 129.365 249.095 129.512 248.983C132.545 246.663 135.593 244.351 138.627 242.027C139.504 241.364 139.542 240.225 138.73 239.567C138.163 239.105 137.416 239.112 136.762 239.602C134.936 240.989 133.115 242.376 131.294 243.769C129.936 244.803 128.589 245.833 127.178 246.911C126.694 246.28 126.227 245.705 125.805 245.1C125.733 244.992 125.806 244.718 125.903 244.584C127.52 242.181 129.124 239.765 130.807 237.403C132.471 235.059 134.364 232.892 136.446 230.905C138.397 229.026 140.513 227.369 143.07 226.38C144.71 225.744 146.401 225.312 148.149 225.126C148.308 225.103 148.538 225.261 148.65 225.407C150.427 227.695 152.182 229.986 153.943 232.283C154.472 232.966 154.993 233.663 155.538 234.338C155.701 234.541 155.721 234.715 155.617 234.963ZM156.67 231.762C154.915 229.471 153.201 227.243 151.484 225.005C151.486 224.954 151.501 224.894 151.509 224.839C153.508 225.077 155.511 225.321 157.536 225.563C157.498 227.734 157.176 229.723 156.67 231.762Z" fill="#317F8B"/>
<path d="M155.541 234.337C154.995 233.661 154.475 232.965 153.947 232.281C152.187 229.985 150.43 227.694 148.653 225.406C148.541 225.26 148.311 225.102 148.152 225.124C146.405 225.311 144.713 225.743 143.073 226.379C140.515 227.367 138.4 229.025 136.449 230.903C134.367 232.891 132.474 235.057 130.81 237.402C129.127 239.765 127.524 242.181 125.907 244.583C125.809 244.717 125.737 244.99 125.808 245.099C126.229 245.704 126.696 246.279 127.181 246.909C128.592 245.832 129.939 244.801 131.297 243.767C133.118 242.375 134.94 240.987 136.765 239.601C137.419 239.111 138.166 239.105 138.734 239.566C139.546 240.224 139.508 241.364 138.631 242.026C135.596 244.35 132.548 246.662 129.515 248.982C129.369 249.094 129.222 249.201 129.087 249.309C129.125 249.403 129.134 249.45 129.16 249.48C129.552 249.998 129.968 250.504 130.339 251.029C130.51 251.267 130.669 251.28 130.929 251.206C136.245 249.615 141.444 247.735 146.295 245.007C148.083 244.002 149.783 242.869 151.281 241.459C153.221 239.62 154.583 237.4 155.62 234.961C155.722 234.715 155.702 234.541 155.541 234.337ZM150.217 237.833C147.898 239.574 144.617 239.148 142.875 236.87C141.122 234.595 141.564 231.329 143.861 229.565C146.117 227.835 149.399 228.282 151.158 230.558C152.896 232.82 152.472 236.135 150.217 237.833Z" fill="white"/>
<path d="M156.67 231.761C154.914 229.474 153.199 227.243 151.483 225.005C151.489 224.952 151.5 224.896 151.508 224.839C153.507 225.079 155.512 225.322 157.539 225.564C157.5 227.732 157.175 229.723 156.67 231.761Z" fill="#DB2C2C"/>
<path d="M130.587 232.546C128.582 235.264 126.575 237.988 124.533 240.757C122.249 240.013 119.885 239.247 117.457 238.461C119.969 235.802 122.623 233.482 126.2 232.505C127.745 232.08 129.529 232.118 130.587 232.546Z" fill="#DB2C2C"/>
<path d="M140.661 257.109C138.968 258.753 136.998 259.981 134.864 261.097C134.735 258.49 134.605 255.938 134.477 253.436C137.7 252.188 140.852 250.971 144.024 249.741C144.146 250.613 143.993 251.532 143.715 252.432C143.135 254.274 142.029 255.773 140.661 257.109Z" fill="#DB2C2C"/>
<path d="M151.157 230.558C149.399 228.282 146.115 227.836 143.86 229.565C141.563 231.331 141.12 234.596 142.873 236.87C144.615 239.148 147.897 239.574 150.216 237.834C152.472 236.135 152.896 232.82 151.157 230.558ZM148.653 235.912C147.478 236.799 145.752 236.565 144.837 235.396C143.891 234.191 144.149 232.42 145.402 231.494C146.576 230.618 148.334 230.872 149.218 232.047C150.141 233.269 149.887 234.984 148.653 235.912Z" fill="#317F8B"/>
<path d="M148.651 235.912C147.476 236.799 145.75 236.565 144.833 235.394C143.89 234.191 144.145 232.42 145.398 231.494C146.574 230.62 148.331 230.871 149.214 232.044C150.137 233.267 149.887 234.985 148.651 235.912Z" fill="#22A7F0"/>
<path d="M226.33 200.841C226.33 200.841 215.193 195.577 204.733 200.299C194.717 204.821 187.631 237.016 200.608 245.171C208.617 250.205 214.069 245.759 218.6 247.064C225.321 249 239.109 215.851 226.33 200.841Z" fill="white"/>
<g opacity="0.35">
<path d="M231.356 221.793C230.036 235.287 222.883 248.298 218.602 247.064C214.069 245.76 208.618 250.207 200.609 245.174C194.41 241.275 192.791 231.896 193.884 222.66C194.621 228.049 196.71 232.666 200.609 235.116C208.618 240.144 213.951 237.808 218.602 237.007C224.352 236.015 229.04 229.76 231.356 221.793Z" fill="#317F8B"/>
</g>
<path d="M208.821 249.688C206.119 249.688 202.991 249.099 199.507 246.909C196.387 244.949 194.134 241.776 192.811 237.48C191.7 233.875 191.285 229.482 191.609 224.775C191.994 219.202 193.37 213.484 195.483 208.675C197.097 205.001 199.865 200.24 203.88 198.428C215.083 193.37 226.723 198.753 227.213 198.985L227.615 199.174L227.902 199.512C233.75 206.381 234.088 215.871 233.341 222.622C232.5 230.228 229.804 238.297 226.306 243.679C222.802 249.07 219.869 249.569 218.025 249.038C216.829 248.694 215.317 248.934 213.566 249.213C212.183 249.435 210.593 249.688 208.821 249.688ZM214.267 200.382C211.132 200.382 208.226 200.979 205.586 202.172C203.414 203.152 201.109 206.123 199.264 210.324C197.364 214.647 196.075 220.017 195.726 225.059C195.112 233.961 197.292 240.659 201.709 243.435C206.162 246.234 209.597 245.686 212.917 245.157C215.063 244.814 217.091 244.491 219.174 245.091C219.413 245.133 221.13 244.473 223.551 240.296C229.197 230.555 232.777 212.158 225.053 202.527C224.178 202.165 221.925 201.312 218.976 200.802C217.356 200.522 215.784 200.382 214.267 200.382Z" fill="#317F8B"/>
</svg>
